<?xml version="1.0" standalone="no"?>
<!DOCTYPE svg PUBLIC "-//W3C//DTD SVG 20010904//EN"
 "http://www.w3.org/TR/2001/REC-SVG-20010904/DTD/svg10.dtd">
<svg version="1.0" xmlns="http://www.w3.org/2000/svg"
 width="913.000000pt" height="913.000000pt" viewBox="0 0 913.000000 913.000000"
 preserveAspectRatio="xMidYMid meet">
<metadata>
Created by potrace 1.11, written by Peter Selinger 2001-2013
</metadata>
<g transform="translate(0.000000,913.000000) scale(0.100000,-0.100000)"
fill="#000000" stroke="none">
<path d="M4387 9124 c-1 -1 -54 -5 -117 -8 l-115 -6 -36 -38 c-97 -101 -198
-263 -274 -435 -59 -135 -88 -367 -65 -519 78 -511 634 -800 1190 -618 357
117 656 421 773 785 23 72 33 111 53 210 12 58 11 281 -1 350 -24 133 -10 121
-190 161 -20 4 -171 36 -190 40 -87 17 -237 40 -320 49 -33 3 -74 8 -91 10
-95 13 -606 29 -617 19z"/>
<path d="M2515 8645 c-33 -17 -85 -44 -115 -60 -234 -123 -525 -320 -770 -523
-165 -136 -560 -535 -560 -565 0 -6 64 -26 110 -33 14 -3 31 -7 39 -10 78 -27
385 -24 504 6 20 6 53 14 73 19 175 45 370 157 505 290 164 164 262 349 297
564 15 92 4 320 -16 338 -4 4 -34 -8 -67 -26z"/>
<path d="M6845 8483 c2 -16 6 -57 9 -93 35 -403 287 -734 648 -854 94 -31 130
-37 255 -41 86 -3 248 16 262 31 16 16 -344 379 -525 530 -152 125 -327 256
-464 343 -92 58 -179 111 -185 111 -2 0 -2 -12 0 -27z"/>
<path d="M6140 8003 c-284 -43 -515 -164 -735 -387 -188 -191 -309 -415 -360
-671 -15 -76 -13 -271 5 -355 70 -337 313 -606 645 -715 276 -90 559 -71 819
54 306 148 526 426 608 770 26 113 28 126 32 261 11 384 -148 715 -439 916
-54 37 -162 84 -242 105 -73 19 -266 32 -333 22z"/>
<path d="M2840 7779 c-292 -50 -560 -190 -781 -409 -198 -196 -304 -407 -313
-621 -14 -321 208 -594 582 -719 48 -15 103 -31 122 -34 19 -3 46 -8 60 -12
51 -13 316 -12 395 2 447 74 789 352 919 746 26 79 39 162 40 263 1 121 -7
180 -35 265 -81 249 -262 424 -516 499 -135 40 -311 48 -473 20z"/>
<path d="M8282 7138 c-6 -24 -14 -65 -17 -93 -4 -27 -8 -61 -11 -75 -7 -38 -6
-259 1 -305 25 -165 54 -268 111 -393 71 -156 202 -319 339 -423 68 -52 200
-129 220 -129 8 0 17 -4 20 -10 3 -5 12 -10 20 -10 11 0 8 20 -12 93 -89 326
-227 661 -402 977 -64 116 -248 410 -256 410 -1 0 -7 -19 -13 -42z"/>
<path d="M739 6416 c-2 -2 -35 -6 -73 -10 -38 -4 -71 -8 -75 -10 -3 -2 -22 -7
-41 -10 -69 -11 -183 -45 -195 -58 -34 -36 -175 -455 -230 -686 -19 -77 -75
-369 -80 -417 -4 -33 -8 -67 -10 -75 -2 -8 -7 -42 -10 -75 l-6 -60 63 -29
c188 -86 372 -127 593 -132 245 -6 421 30 620 126 310 149 493 411 493 705 0
269 -153 495 -423 625 -158 75 -305 107 -506 108 -65 0 -119 -1 -120 -2z"/>
<path d="M4118 6325 c-2 -1 -31 -5 -64 -8 -185 -18 -405 -98 -579 -211 -115
-75 -230 -179 -295 -264 -14 -19 -30 -39 -36 -46 -29 -31 -106 -179 -129 -248
-98 -297 -25 -585 207 -817 118 -118 276 -213 448 -271 64 -22 82 -27 130 -36
14 -2 31 -7 39 -10 50 -17 293 -24 412 -11 80 9 212 45 296 80 297 127 499
350 589 652 23 78 27 109 28 235 1 159 -4 206 -34 301 -108 338 -384 575 -747
639 -54 9 -258 21 -265 15z"/>
<path d="M7488 6295 c-2 -2 -29 -5 -61 -9 -286 -30 -604 -222 -799 -481 -112
-149 -197 -349 -225 -530 -10 -65 -10 -266 0 -330 66 -426 408 -788 851 -900
592 -150 1146 162 1311 740 14 50 28 109 31 131 3 23 7 53 10 65 2 13 5 78 5
144 2 337 -115 634 -340 865 -161 165 -351 265 -561 296 -44 6 -217 13 -222 9z"/>
<path d="M1818 5015 c-2 -1 -27 -6 -57 -9 -62 -7 -71 -9 -163 -31 -104 -24
-186 -53 -283 -100 -322 -154 -512 -391 -518 -647 -2 -84 7 -148 29 -210 16
-45 76 -161 97 -184 7 -8 30 -36 52 -62 237 -282 677 -459 1110 -447 159 5
174 7 305 41 254 68 451 210 567 409 30 52 68 149 78 200 3 17 8 41 10 55 3
14 6 62 6 107 0 143 -46 291 -135 432 -42 66 -182 202 -261 254 -123 80 -306
152 -439 173 -21 3 -48 8 -60 11 -22 5 -332 13 -338 8z"/>
<path d="M5260 4665 c-128 -22 -143 -25 -220 -51 -184 -62 -359 -171 -499
-314 -100 -101 -216 -308 -236 -421 -19 -104 -23 -143 -20 -229 20 -546 601
-1018 1259 -1022 360 -2 683 156 870 425 16 23 46 78 67 122 288 607 -120
1354 -808 1481 -13 2 -35 7 -50 10 -56 12 -290 11 -363 -1z"/>
<path d="M8927 4414 c-1 -1 -34 -5 -73 -8 -167 -15 -387 -101 -529 -207 -146
-108 -278 -264 -358 -425 -34 -68 -79 -195 -91 -259 -4 -16 -9 -41 -12 -55
-13 -60 -12 -279 2 -364 41 -251 171 -496 363 -684 72 -71 237 -200 245 -191
2 2 33 56 68 119 283 502 482 1114 543 1665 4 33 8 70 10 81 2 12 6 61 10 110
3 49 8 112 10 139 2 28 0 56 -4 63 -5 9 -37 14 -95 15 -48 1 -88 2 -89 1z"/>
<path d="M14 4162 c2 -4 7 -42 10 -84 4 -42 8 -85 10 -95 2 -10 7 -40 10 -68
13 -98 42 -249 72 -380 2 -11 6 -31 9 -45 3 -14 16 -65 30 -115 14 -49 28 -99
30 -109 27 -119 182 -516 201 -516 29 0 140 42 219 83 159 83 287 245 316 402
34 183 -40 403 -188 560 -55 58 -167 152 -192 160 -12 3 -21 10 -21 15 0 11
-207 112 -285 138 -125 43 -230 68 -221 54z"/>
<path d="M2925 3424 c-154 -24 -389 -103 -446 -151 -8 -7 -19 -13 -24 -13 -12
0 -126 -85 -176 -132 -98 -92 -173 -214 -203 -333 -24 -93 -16 -259 18 -354
71 -202 216 -382 433 -538 158 -112 413 -225 584 -258 12 -2 28 -6 37 -9 51
-16 216 -31 330 -29 307 3 558 102 731 290 64 70 144 202 156 258 2 11 9 36
15 55 21 71 27 185 15 285 -10 84 -6 65 -34 155 -108 351 -443 641 -858 744
-136 34 -158 37 -333 41 -101 2 -186 -2 -245 -11z"/>
<path d="M6688 2855 c-1 -1 -31 -5 -65 -9 -434 -45 -826 -368 -913 -751 -17
-77 -21 -108 -21 -194 -1 -108 9 -170 43 -281 109 -349 431 -670 830 -829 76
-31 242 -79 295 -85 15 -2 47 -7 70 -10 40 -7 48 -3 150 65 94 62 252 176 309
222 147 118 261 222 414 376 166 167 287 304 284 320 -1 3 -4 35 -8 71 -17
179 -117 424 -241 585 -202 265 -479 436 -805 500 -72 14 -331 30 -342 20z"/>
<path d="M667 2694 c-1 -1 -27 -5 -57 -8 -79 -9 -174 -27 -183 -36 -9 -8 113
-252 203 -405 85 -145 241 -370 356 -515 140 -176 149 -185 349 -385 183 -184
293 -284 311 -285 26 0 189 52 237 76 231 118 352 309 342 543 -2 47 -6 95 -8
106 -65 282 -275 532 -592 704 -107 59 -305 135 -409 157 -77 17 -170 33 -226
40 -58 6 -318 13 -323 8z"/>
<path d="M4203 1664 c-323 -51 -601 -226 -723 -456 -176 -330 -15 -781 398
-1110 53 -42 82 -58 105 -59 18 0 41 -2 52 -4 163 -33 809 -39 975 -10 14 2
52 7 85 10 79 8 109 13 240 35 142 25 158 28 230 46 33 8 70 16 82 18 12 3 49
12 81 21 53 15 62 21 75 54 33 77 42 135 42 271 -1 137 -7 176 -46 295 -114
341 -416 643 -799 795 -62 25 -200 68 -245 76 -188 36 -399 42 -552 18z"/>
<path d="M1977 1004 c-1 -1 -38 -4 -82 -8 -44 -4 -96 -10 -115 -14 l-34 -8 79
-60 c257 -193 533 -357 858 -508 55 -25 104 -46 111 -46 7 0 16 -4 21 -9 37
-34 704 -246 721 -229 6 7 -50 111 -101 188 -27 41 -99 125 -160 185 -308 307
-765 497 -1221 509 -41 1 -76 1 -77 0z"/>
</g>
</svg>
